# Blender v2.77 (sub 0) OBJ File: 'HomuraWeapon6.blend'
# www.blender.org
mtllib wephomura6.mtl
o 0-0-0
v -0.488347 0.699982 -7.591048
v -0.488348 1.263878 1.957383
v -0.488348 1.263877 -7.591048
v -0.488347 0.699983 1.957383
v -0.006934 0.431834 -7.591048
v 0.000000 0.418035 1.957383
v 0.488348 0.699982 -7.591048
v 0.488348 0.699983 1.957383
v 0.488348 1.263877 -7.591048
v 0.488348 1.263878 1.957383
v 0.000000 1.545824 -7.591048
v 0.000000 1.545825 1.957383
v -0.488348 1.263877 -7.591048
v -0.488348 1.263878 1.957383
v -0.663610 0.598796 1.831145
v -0.663610 1.365066 2.162051
v -0.663610 1.365066 1.831145
v -0.663610 0.598796 2.162051
v 0.000000 0.215660 1.831145
v 0.000000 0.215660 2.162051
v 0.663609 0.598796 1.831145
v 0.663609 0.598796 2.162051
v 0.663609 1.365066 1.831145
v 0.663609 1.365066 2.162051
v 0.000000 1.748201 1.831145
v 0.000000 1.748201 2.162051
v -0.663610 1.365066 1.831145
v -0.663610 1.365066 2.162051
v -0.663610 1.365066 2.162051
v -0.663610 0.598796 2.162051
v 0.000000 1.748201 2.162051
v 0.000000 0.215660 2.162051
v 0.663609 0.598796 2.162051
v 0.663609 1.365066 2.162051
v -0.663610 0.598796 1.831145
v -0.663610 1.365066 1.831145
v 0.000000 1.748201 1.831145
v 0.000000 0.215660 1.831145
v 0.663609 0.598796 1.831145
v 0.663609 1.365066 1.831145
v -0.944416 0.436671 -8.148730
v -0.944416 1.527188 -8.148730
v 0.000000 2.072446 -8.148730
v 0.000000 -0.108588 -8.148730
v 0.944416 0.436672 -8.148730
v 0.944416 1.527188 -8.148730
v -0.199050 -0.583309 0.192606
v 0.214690 -0.583309 0.192606
v -0.199050 0.561166 0.192606
v 0.214690 0.565835 0.192606
v -0.199050 -0.450502 -0.163901
v 0.214690 -0.450502 -0.163901
v -0.199050 -0.583309 0.192606
v 0.214690 -0.583309 0.192606
v 0.214690 -0.583309 0.192606
v 0.214690 -0.450502 -0.163901
v 0.214690 0.565835 0.192606
v 0.214690 0.566491 -0.163901
v -0.199050 -0.583309 0.192606
v -0.199050 0.561166 0.192606
v -0.199050 -0.450502 -0.163901
v -0.199050 0.561381 -0.163901
v 0.214690 0.566491 -0.163901
v 0.214690 -0.450502 -0.163901
v -0.199050 0.561381 -0.163901
v -0.199050 -0.450502 -0.163901
v 0.380309 1.646284 1.597088
v 0.553744 1.546151 1.597088
v 0.246106 1.413838 1.597088
v 0.419541 1.313705 1.597088
v 0.131212 1.398887 -0.659693
v 0.464662 1.206370 -0.659693
v 0.292343 1.565898 -0.828067
v 0.528732 1.429418 -0.828067
v 0.292343 1.565898 -0.828067
v 0.528732 1.429418 -0.828067
v 0.292343 1.565898 -1.648211
v 0.528732 1.429418 -1.648211
v 0.292343 1.565898 -1.648211
v 0.528732 1.429418 -1.648211
v 0.131212 1.398887 -1.816584
v 0.464662 1.206370 -1.816584
v 0.464662 1.206370 -0.659693
v 0.464662 1.206370 -1.816584
v 0.528732 1.429418 -0.828067
v 0.528732 1.429418 -1.648211
v 0.131212 1.398887 -1.816584
v 0.131212 1.398887 -0.659693
v 0.292343 1.565898 -1.648211
v 0.292343 1.565898 -0.828067
v 0.128907 1.398269 1.639220
v 0.465279 1.204065 1.639220
v 0.214129 1.490173 1.596280
v 0.502258 1.323821 1.596280
v 0.214129 1.490173 1.596280
v 0.502258 1.323821 1.596280
v 0.214129 1.490173 0.835199
v 0.502258 1.323821 0.835199
v 0.214129 1.490173 0.835199
v 0.502258 1.323821 0.835199
v 0.128907 1.398269 0.773089
v 0.465279 1.204065 0.773089
v 0.465279 1.204065 0.773089
v 0.502258 1.323821 0.835199
v 0.465279 1.204065 1.639220
v 0.502258 1.323821 1.596280
v 0.128907 1.398269 0.773089
v 0.128907 1.398269 1.639220
v 0.214129 1.490173 0.835199
v 0.214129 1.490173 1.596280
v -0.393548 1.326314 -2.562843
v -0.393548 1.326314 -2.340432
v -0.340775 1.358432 -2.562843
v -0.340775 1.358432 -2.491554
v -0.126000 1.487976 -2.340432
v -0.214661 1.434018 -2.491554
v -0.126000 1.487975 -7.234132
v -0.214661 1.434017 -7.234132
v 0.000000 -0.091469 -7.977499
v 0.929590 0.445230 -7.977499
v 0.000000 0.981930 -6.672948
v -0.929590 0.445230 -7.977499
v 0.929590 1.518629 -7.977499
v -0.929590 1.518629 -7.977499
v 0.000000 2.055327 -7.977499
v 0.929590 0.445230 -7.977499
v 0.000000 -0.091469 -7.977499
v 0.944416 0.436672 -8.148730
v 0.929590 1.518629 -7.977499
v 0.944416 1.527188 -8.148730
v 0.000000 -0.108588 -8.148730
v -0.929590 0.445230 -7.977499
v 0.000000 2.072446 -8.148730
v 0.000000 2.055327 -7.977499
v -0.944416 0.436671 -8.148730
v -0.929590 1.518629 -7.977499
v -0.944416 1.527188 -8.148730
vt 0.9941 0.5745
vt 0.0109 0.4927
vt 0.9941 0.4927
vt 0.0109 0.5745
vt 0.9941 0.6565
vt 0.0109 0.6565
vt 0.9941 0.7383
vt 0.0109 0.7383
vt 0.9941 0.8201
vt 0.0109 0.8201
vt 0.9941 0.9019
vt 0.0109 0.9019
vt 0.9941 0.9766
vt 0.0109 0.9766
vt 0.9336 0.0557
vt 0.9922 0.0078
vt 0.9922 0.0557
vt 0.9336 0.0078
vt 0.8745 0.0557
vt 0.8745 0.0078
vt 0.8159 0.0557
vt 0.8159 0.0078
vt 0.7573 0.0557
vt 0.7573 0.0078
vt 0.6987 0.0557
vt 0.6987 0.0078
vt 0.6401 0.0557
vt 0.6401 0.0078
vt 0.0069 0.3213
vt 0.0069 0.1182
vt 0.1016 0.4224
vt 0.1016 0.0171
vt 0.1963 0.1182
vt 0.1963 0.3213
vt 0.7344 0.1265
vt 0.7344 0.2383
vt 0.6860 0.2759
vt 0.6860 0.0781
vt 0.6382 0.1270
vt 0.6382 0.2383
vt 0.2052 0.2314
vt 0.2052 0.3799
vt 0.2725 0.4541
vt 0.2725 0.1577
vt 0.3350 0.2314
vt 0.3350 0.3799
vt 0.3469 0.3843
vt 0.3469 0.2056
vt 0.4885 0.3843
vt 0.4885 0.2056
vt 0.2310 0.1172
vt 0.2310 0.0239
vt 0.3245 0.1172
vt 0.3245 0.0239
vt 0.3469 0.2056
vt 0.3469 0.1362
vt 0.4885 0.2056
vt 0.4885 0.1362
vt 0.3469 0.1362
vt 0.4885 0.1362
vt 0.3469 0.2056
vt 0.4885 0.2056
vt 0.4885 0.3843
vt 0.3469 0.3843
vt 0.4885 0.2056
vt 0.3469 0.2056
vt 0.9800 0.1865
vt 0.9111 0.1865
vt 0.9800 0.0942
vt 0.9111 0.0942
vt 0.9009 0.2207
vt 0.9399 0.2207
vt 0.9009 0.2905
vt 0.9399 0.2905
vt 0.3555 0.1021
vt 0.3555 0.0239
vt 0.5112 0.1021
vt 0.5112 0.0239
vt 0.9785 0.2905
vt 0.9399 0.2905
vt 0.9785 0.2207
vt 0.9399 0.2207
vt 0.7651 0.2202
vt 0.8999 0.2202
vt 0.7852 0.2905
vt 0.8809 0.2905
vt 0.8999 0.2202
vt 0.7651 0.2202
vt 0.8809 0.2905
vt 0.7852 0.2905
vt 0.8247 0.3154
vt 0.9204 0.3154
vt 0.8330 0.3667
vt 0.9150 0.3667
vt 0.8955 0.0698
vt 0.8955 0.1968
vt 0.7539 0.0698
vt 0.7539 0.1968
vt 0.8330 0.3667
vt 0.9150 0.3667
vt 0.8247 0.3154
vt 0.9204 0.3154
vt 0.8213 0.3154
vt 0.8125 0.3667
vt 0.6934 0.3154
vt 0.7026 0.3667
vt 0.8213 0.3154
vt 0.6934 0.3154
vt 0.8125 0.3667
vt 0.7026 0.3667
vt 0.3740 0.4160
vt 0.4077 0.4160
vt 0.3740 0.4629
vt 0.4077 0.4629
vt 0.4604 0.4160
vt 0.4758 0.4629
vt 0.9648 0.4160
vt 0.9648 0.4629
vt 0.5942 0.0171
vt 0.5942 0.1021
vt 0.5063 0.1953
vt 0.5942 0.1021
vt 0.5942 0.1958
vt 0.5942 0.1958
vt 0.5942 0.2944
vt 0.5942 0.1021
vt 0.5942 0.0171
vt 0.6240 0.1021
vt 0.5942 0.1958
vt 0.6240 0.1958
vt 0.6240 0.0171
vt 0.5942 0.1021
vt 0.6240 0.2944
vt 0.5942 0.2944
vt 0.6240 0.1021
vt 0.5942 0.1958
vt 0.6240 0.1958
vn -0.8621 -0.5066 0.0000
vn -1.0000 0.0000 0.0000
vn -0.8659 -0.5002 -0.0005
vn -0.0065 -1.0000 -0.0009
vn -0.0003 -1.0000 -0.0005
vn 0.8593 -0.5113 -0.0009
vn 0.8660 -0.5000 0.0000
vn 0.8660 0.5000 0.0000
vn 0.0000 1.0000 0.0000
vn -0.5000 0.8660 0.0000
vn -0.8660 -0.5000 0.0000
vn 0.0000 -1.0000 0.0000
vn 0.0000 0.0000 1.0000
vn 0.0000 0.0000 -1.0000
vn 0.0000 -0.9371 -0.3491
vn 1.0000 0.0000 0.0000
vn 0.2994 0.5186 0.8009
vn 0.5000 0.8660 0.0000
vn 0.2994 0.5186 -0.8009
vn 0.9611 -0.2761 0.0000
vn -0.7197 0.6943 0.0000
vn 0.1657 0.2871 0.9434
vn 0.2265 0.3924 -0.8914
vn 0.9555 -0.2950 0.0000
vn -0.7332 0.6799 0.0000
vn -0.5199 0.8542 0.0000
vn -0.5178 0.8555 0.0010
vn -0.5184 0.8551 -0.0001
vn -0.5173 0.8557 -0.0008
vn -0.5172 0.8558 -0.0021
vn 0.0000 -0.7722 0.6354
vn 0.6687 -0.3861 0.6354
vn -0.6687 -0.3861 0.6354
vn 0.6687 0.3861 0.6354
vn -0.6687 0.3861 0.6354
vn 0.0000 0.7722 0.6354
vn 0.8617 -0.4975 0.0995
vn 0.0000 -0.9950 0.0995
vn 0.8617 0.4975 0.0995
vn -0.8617 -0.4975 0.0995
vn 0.0000 0.9950 0.0995
vn -0.8617 0.4975 0.0995
usemtl 0-0-0
s 1
f 1/1/1 2/2/2 3/3/2
f 2/2/2 1/1/1 4/4/3
f 4/4/3 1/1/1 5/5/4
f 6/6/5 4/4/3 5/5/4
f 7/7/6 6/6/5 5/5/4
f 8/8/7 6/6/5 7/7/6
f 9/9/8 8/8/7 7/7/6
f 10/10/8 8/8/7 9/9/8
f 11/11/9 10/10/8 9/9/8
f 12/12/9 10/10/8 11/11/9
f 13/13/10 12/12/9 11/11/9
f 14/14/10 12/12/9 13/13/10
f 15/15/11 16/16/2 17/17/2
f 18/18/11 16/16/2 15/15/11
f 19/19/12 18/18/11 15/15/11
f 20/20/12 18/18/11 19/19/12
f 21/21/7 20/20/12 19/19/12
f 22/22/7 20/20/12 21/21/7
f 23/23/8 22/22/7 21/21/7
f 24/24/8 22/22/7 23/23/8
f 25/25/9 24/24/8 23/23/8
f 26/26/9 24/24/8 25/25/9
f 27/27/10 26/26/9 25/25/9
f 28/28/10 26/26/9 27/27/10
f 29/29/13 30/30/13 31/31/13
f 30/30/13 32/32/13 31/31/13
f 32/32/13 33/33/13 31/31/13
f 33/33/13 34/34/13 31/31/13
f 35/35/14 36/36/14 37/37/14
f 38/38/14 35/35/14 37/37/14
f 39/39/14 38/38/14 37/37/14
f 40/40/14 39/39/14 37/37/14
f 41/41/14 42/42/14 43/43/14
f 44/44/14 41/41/14 43/43/14
f 45/45/14 44/44/14 43/43/14
f 46/46/14 45/45/14 43/43/14
f 47/47/13 48/48/13 49/49/13
f 49/49/13 48/48/13 50/50/13
f 51/51/15 52/52/15 53/53/15
f 53/53/15 52/52/15 54/54/15
f 55/55/16 56/56/16 57/57/16
f 57/57/16 56/56/16 58/58/16
f 59/59/2 60/60/2 61/61/2
f 61/61/2 60/60/2 62/62/2
f 63/63/14 64/64/14 65/65/14
f 65/65/14 64/64/14 66/66/14
f 67/67/14 68/68/14 69/69/14
f 69/69/14 68/68/14 70/70/14
f 71/71/17 72/72/17 73/73/17
f 73/73/17 72/72/17 74/74/17
f 75/75/18 76/76/18 77/77/18
f 77/77/18 76/76/18 78/78/18
f 79/79/19 80/80/19 81/81/19
f 81/81/19 80/80/19 82/82/19
f 83/83/20 84/84/20 85/85/20
f 85/85/20 84/84/20 86/86/20
f 87/87/21 88/88/21 89/89/21
f 89/89/21 88/88/21 90/90/21
f 91/91/22 92/92/22 93/93/22
f 93/93/22 92/92/22 94/94/22
f 95/95/18 96/96/18 97/97/18
f 97/97/18 96/96/18 98/98/18
f 99/99/23 100/100/23 101/101/23
f 101/101/23 100/100/23 102/102/23
f 103/103/24 104/104/24 105/105/24
f 105/105/24 104/104/24 106/106/24
f 107/107/25 108/108/25 109/109/25
f 109/109/25 108/108/25 110/110/25
f 111/111/26 112/112/27 113/113/26
f 113/113/26 112/112/27 114/114/28
f 112/112/27 115/115/29 114/114/28
f 114/114/28 115/115/29 116/116/30
f 115/115/29 117/117/26 116/116/30
f 117/117/26 118/118/26 116/116/30
f 119/119/31 120/120/32 121/121/13
f 122/122/33 119/119/31 121/121/13
f 120/120/32 123/123/34 121/121/13
f 124/124/35 122/122/33 121/121/13
f 125/125/36 124/124/35 121/121/13
f 123/123/34 125/125/36 121/121/13
f 126/126/37 127/127/38 128/128/37
f 129/129/39 126/126/37 130/130/39
f 130/130/39 126/126/37 128/128/37
f 128/128/37 127/127/38 131/131/38
f 127/127/38 132/132/40 131/131/38
f 133/133/41 129/129/39 130/130/39
f 134/134/41 129/129/39 133/133/41
f 131/131/38 132/132/40 135/135/40
f 136/136/42 134/134/41 137/137/42
f 132/132/40 136/136/42 135/135/40
f 135/135/40 136/136/42 137/137/42
f 137/137/42 134/134/41 133/133/41
